# xmcd
#
# Track frame offsets: 
#        150
#        17979
#        37954
#        57007
#        75218
#        93638
#        115909
#        135685
#        151800
#        170790
#        189844
#        207160
#
# Disc length: 3055 seconds
#
# Revision: 1
# Processed by: cddbd v1.5.2PL0 Copyright (c) Steve Scherf et al.
# Submitted via: ExactAudioCopy v0.95a4
#
DISCID=910bed0c
DTITLE=Tito and Tarantula - lost tarantism
DYEAR=2015
DGENRE=Rock
TTITLE0=When To Let It Go
TTITLE1=Back To Mexico
TTITLE2=Jokes On Me
TTITLE3=Damn Good Day To Die
TTITLE4=Cry In The Night
TTITLE5=See You On The Way Down
TTITLE6=Navajo In A UFO
TTITLE7=Wild Love
TTITLE8=You Don't Scare Me
TTITLE9=Gimme Respect
TTITLE10=To Paradise
TTITLE11=In My Arms Tonight
EXTD=Year: 2015\n\n\n\n\n\n                                           
EXTD=  www.titoandtarantula.com
EXTT0=
EXTT1=
EXTT2=
EXTT3=
EXTT4=
EXTT5=
EXTT6=
EXTT7=
EXTT8=
EXTT9=
EXTT10=
EXTT11=
PLAYORDER=
